<svg width="157" height="157" viewBox="0 0 157 157" fill="none" xmlns="http://www.w3.org/2000/svg">
<path d="M132.469 127.562C143.307 127.562 152.094 118.776 152.094 107.938C152.094 97.0989 143.307 88.3125 132.469 88.3125C121.63 88.3125 112.844 97.0989 112.844 107.938C112.844 118.776 121.63 127.562 132.469 127.562Z" stroke="#5507A4" stroke-width="8" stroke-miterlimit="10" stroke-linecap="round" stroke-linejoin="round"/>
<path d="M24.5312 127.562C35.3698 127.562 44.1562 118.776 44.1562 107.938C44.1562 97.0989 35.3698 88.3125 24.5312 88.3125C13.6927 88.3125 4.90625 97.0989 4.90625 107.938C4.90625 118.776 13.6927 127.562 24.5312 127.562Z" stroke="#5507A4" stroke-width="8" stroke-miterlimit="10" stroke-linecap="round" stroke-linejoin="round"/>
<path d="M24.5312 68.6875C46.1188 68.6875 63.7812 86.35 63.7812 107.938H93.2188C93.2188 86.35 110.881 68.6875 132.469 68.6875C136.394 68.6875 140.809 69.1781 144.244 70.65" stroke="#5507A4" stroke-width="8" stroke-miterlimit="10" stroke-linecap="round" stroke-linejoin="round"/>
<path d="M112.844 53.9688H83.4062L81.4438 56.9125C73.5938 69.6688 58.875 76.5375 44.1562 73.5938" stroke="#5507A4" stroke-width="8" stroke-miterlimit="10" stroke-linecap="round" stroke-linejoin="round"/>
<path d="M88.3125 34.3438H107.938L132.469 107.938" stroke="#BD7CFF" stroke-width="8" stroke-miterlimit="10" stroke-linecap="round" stroke-linejoin="round"/>
</svg>
