<svg width="183" height="183" viewBox="0 0 183 183" fill="none" xmlns="http://www.w3.org/2000/svg">
<path d="M155.732 125.897L156.079 124.884H157.15H167.147C170.459 124.884 172.967 122.376 172.967 119.064V95.1598C172.967 84.5219 164.352 75.929 153.749 76.1406L153.734 76.1409H153.719H137.364H136.405L136.003 75.2715L128.202 58.4355L128.198 58.4263L128.194 58.417C124.3 49.7037 115.556 44.1846 106.139 44.1846H62.4937C56.049 44.1846 49.8434 46.7278 45.2543 51.3169L31.3463 65.2249L14.9907 81.5805C11.3526 85.2186 9.32242 89.9641 9.32242 95.1598V119.064C9.32242 122.376 11.8305 124.884 15.1424 124.884H25.1388H26.1806L26.5444 125.86C29.5201 133.846 37.0383 139.524 45.8864 139.524C54.292 139.524 61.5822 134.512 64.7563 127.248L65.1493 126.348H66.1308H116.158H117.14L117.533 127.248C120.707 134.513 127.975 139.524 136.403 139.524C145.278 139.524 153.012 133.824 155.732 125.897ZM80.2675 55.8474H81.7675V57.3474V74.6638V76.1638H80.2675H41.2199H37.5986L40.1593 73.6032L54.0673 59.6952C56.5359 57.2265 59.842 55.8474 63.1799 55.8474H80.2675ZM117.73 63.2678L117.742 63.2913L117.753 63.3152L122.625 74.0436L123.588 76.1638H121.26H94.9075H93.4075V74.6638V57.3474V55.8474H94.9075H106.139C111.157 55.8474 115.559 58.8992 117.73 63.2678ZM132.743 87.8038H153.948C157.956 87.8038 161.304 91.1518 161.304 95.1598V111.493V112.993H159.804H157.128H156.086L155.722 112.016C152.746 104.031 145.228 98.3526 136.38 98.3526C127.074 98.3526 119.342 104.477 116.845 113.121L116.532 114.205H115.404H67.8235H66.6738L66.3751 113.095C64.1258 104.734 56.1622 98.3526 46.8472 98.3526C37.9721 98.3526 30.2384 104.053 27.5183 111.979L27.1707 112.993H26.0995H23.4232H21.9232V111.493V94.9082C21.9232 93.0835 22.5591 91.2294 24.0721 89.7132C25.2948 88.4647 27.1351 87.5522 29.2792 87.5522H87.6104H131.22H132.554H132.554H132.555H132.555H132.556H132.556H132.557H132.557H132.557H132.558H132.558H132.559H132.559H132.56H132.56H132.561H132.561H132.562H132.562H132.563H132.564H132.564H132.565H132.565H132.566H132.566H132.566H132.567H132.567H132.567H132.568H132.568H132.569H132.569H132.569H132.57H132.57H132.571H132.571H132.572H132.572H132.573H132.573H132.573H132.574H132.574H132.575H132.575H132.576H132.576H132.577H132.577H132.578H132.578H132.579H132.58H132.58H132.581H132.581H132.582H132.582H132.583H132.583H132.584H132.585H132.585H132.586H132.586H132.587H132.588H132.588H132.589H132.59H132.59H132.591H132.592H132.592H132.593H132.593H132.594H132.595H132.596H132.596H132.597H132.598H132.598H132.599H132.6H132.601H132.601H132.602H132.603H132.603H132.604H132.605H132.606H132.607H132.607H132.608H132.609H132.61H132.611H132.611H132.612H132.613H132.614H132.615H132.615H132.616H132.617H132.618H132.619H132.62H132.621H132.621H132.622H132.623H132.624H132.625H132.626H132.627H132.628H132.629H132.63H132.631H132.632H132.632H132.633H132.634H132.635H132.636H132.637H132.638H132.639H132.64H132.641H132.642H132.643H132.644H132.645H132.646H132.647H132.648H132.649H132.651H132.652H132.653H132.654H132.655H132.656H132.657H132.658H132.659H132.66H132.661H132.662H132.664H132.665H132.666H132.667H132.668H132.669H132.67H132.672H132.673H132.674H132.675H132.676H132.677H132.679H132.68H132.681H132.682H132.684H132.685H132.686H132.687H132.688H132.69H132.691H132.692H132.693H132.695H132.696H132.697H132.699H132.7H132.701H132.702H132.704H132.705H132.706H132.708H132.709H132.71H132.712H132.713H132.714H132.716H132.717H132.719H132.72H132.721H132.723H132.724H132.726H132.727H132.728H132.73H132.731H132.733H132.734H132.736H132.737H132.738H132.74H132.741H132.743V87.8038ZM145.452 118.835C145.452 123.835 141.341 127.655 136.632 127.655C131.663 127.655 127.812 123.804 127.812 118.835C127.812 113.836 131.922 110.015 136.632 110.015C141.631 110.015 145.452 114.126 145.452 118.835ZM55.1868 118.835C55.1868 123.835 51.0762 127.655 46.3668 127.655C41.6574 127.655 37.5468 123.835 37.5468 118.835C37.5468 113.836 41.6574 110.015 46.3668 110.015C51.3659 110.015 55.1868 114.126 55.1868 118.835Z" fill="#5507A4" stroke="white" stroke-width="3"/>
<circle cx="19.0625" cy="19.0625" r="15.0625" transform="matrix(-1 0 0 1 155.768 99.125)" stroke="#BD7CFF" stroke-width="8"/>
<circle cx="19.0625" cy="19.0625" r="15.0625" transform="matrix(-1 0 0 1 65.3574 99.125)" stroke="#BD7CFF" stroke-width="8"/>
</svg>
