<svg width="143" height="143" viewBox="0 0 143 143" fill="none" xmlns="http://www.w3.org/2000/svg">
<path d="M121.55 96.8226C126.615 86.3955 126.317 73.883 120.358 59.583L119.465 57.1997L113.804 58.9872L109.633 53.0288L113.506 47.3684L102.781 23.833C110.229 19.0663 112.91 11.6184 113.208 5.36217C113.208 4.46842 112.91 3.27676 112.017 2.68092C111.421 2.08509 110.229 1.48926 109.335 1.48926H61.3708C37.5375 1.48926 17.875 20.8538 17.875 44.6872V64.3497C17.875 86.0976 31.8771 95.9288 37.5375 98.908L34.8562 110.229C33.0687 112.016 28.6 116.485 27.7063 123.039C24.7271 125.125 17.875 131.381 17.875 138.531V141.51H106.356V131.977L106.058 131.083C103.377 126.912 99.8021 123.337 95.3333 119.762L96.2271 117.975C100.398 116.783 114.698 110.825 121.55 96.8226ZM71.7979 66.733L91.4604 70.308C92.3542 73.5851 93.2479 82.5226 81.6292 91.758C77.1604 89.6726 63.7542 83.7142 55.1146 79.2455C47.6667 75.3726 46.7729 69.7122 46.7729 68.2226C48.5604 62.8601 50.6458 61.6684 52.4333 61.3705C57.2 60.7747 61.3708 65.5413 61.3708 65.5413L62.2646 66.733H71.7979ZM44.9854 78.6497C46.7729 80.7351 49.1563 82.8205 52.4333 84.608C61.6688 89.3747 76.2667 95.9288 79.8417 97.4184L90.8646 115.591L90.5667 116.187C73.8833 104.866 51.2417 97.1205 44.0917 95.0351C44.0917 88.4809 44.3896 83.1184 44.9854 78.6497ZM116.188 94.1413C111.123 104.866 100.398 110.229 95.9292 112.016L86.0979 95.9288C98.6104 85.7997 98.6104 75.0747 97.4188 69.7122L115.89 64.3497C120.06 75.6705 120.06 85.7997 116.188 94.1413ZM106.654 46.7726L102.185 53.0288L107.548 60.7747L93.2479 64.9455L74.7771 61.3705C75.075 35.1538 80.1396 31.5788 95.0354 27.1101C95.9292 26.8122 96.525 26.8122 97.4188 26.5143L106.654 46.7726ZM23.8333 64.3497V44.6872C23.8333 24.1309 40.8146 7.44759 61.3708 7.44759H106.952C106.356 11.3205 103.973 18.4705 93.8438 21.4497C75.9688 26.5143 69.7125 33.0684 69.4146 60.7747H65.2438C63.1583 58.6893 58.0937 54.8163 51.8375 55.7101C42.6021 57.1997 38.7292 67.6268 38.4312 92.6517C32.7708 89.0767 23.8333 80.7351 23.8333 64.3497ZM32.175 127.21L33.3667 126.316V124.827C33.6646 120.06 36.6438 116.783 38.1333 114.995C43.4958 117.081 61.6688 124.827 76.2667 135.254H24.7271C26.2167 131.977 30.3875 128.402 32.175 127.21ZM100.696 135.552H86.3958C70.6063 122.443 48.5604 112.91 41.4104 109.931L43.4958 101.291L44.3896 101.589V101.291C55.7104 104.866 89.6729 117.081 100.994 133.466V135.552H100.696Z" fill="#5507A4"/>
<path d="M64.2393 64.4171H71.4993L92.9262 67.8956L117.798 61.5371C124.831 79.7051 125.325 105.251 93.7698 115.455L82.7663 95.1445C69.155 90.2543 49.491 80.266 48.0566 77.9469" stroke="#BD7CFF" stroke-width="6" stroke-linecap="round"/>
<path d="M94.3561 69.7422C95.7236 74.2354 95.2938 85.566 82.6348 94.943" stroke="#BD7CFF" stroke-width="6" stroke-linecap="round"/>
</svg>
